<?xml version="1.0" encoding="UTF-8"?>
<svg xmlns="http://www.w3.org/2000/svg" width="480" height="320" viewBox="0 0 480 320">
  <defs>
    <linearGradient id="bg" x1="0%" y1="0%" x2="100%" y2="100%">
      <stop offset="0%" stop-color="#1a1f36"/>
      <stop offset="100%" stop-color="#2d3561"/>
    </linearGradient>
    <linearGradient id="accent" x1="0%" y1="0%" x2="100%" y2="0%">
      <stop offset="0%" stop-color="#6ee7b7"/>
      <stop offset="100%" stop-color="#38bdf8"/>
    </linearGradient>
    <filter id="glow" x="-20%" y="-20%" width="140%" height="140%">
      <feGaussianBlur stdDeviation="4" result="blur"/>
      <feMerge>
        <feMergeNode in="blur"/>
        <feMergeNode in="SourceGraphic"/>
      </feMerge>
    </filter>
  </defs>

  <rect width="480" height="320" rx="16" fill="url(#bg)"/>

  <circle cx="400" cy="60" r="80" fill="#38bdf8" opacity="0.08"/>
  <circle cx="60" cy="260" r="60" fill="#6ee7b7" opacity="0.1"/>

  <g transform="translate(48, 72)" filter="url(#glow)">
    <path d="M0 24 C0 16 6 12 12 12 H52 L68 28 H148 C154 28 160 34 160 40 V136 C160 142 154 148 148 148 H12 C6 148 0 142 0 136 Z"
          fill="url(#accent)" opacity="0.9"/>
    <rect x="24" y="56" width="112" height="8" rx="4" fill="#1a1f36" opacity="0.35"/>
    <rect x="24" y="76" width="88" height="8" rx="4" fill="#1a1f36" opacity="0.25"/>
    <rect x="24" y="96" width="96" height="8" rx="4" fill="#1a1f36" opacity="0.25"/>
  </g>

  <g transform="translate(240, 56)">
    <rect width="192" height="208" rx="12" fill="#ffffff" opacity="0.95"/>
    <rect x="16" y="16" width="160" height="120" rx="8" fill="#e2e8f0"/>
    <circle cx="96" cy="76" r="36" fill="none" stroke="#38bdf8" stroke-width="4"/>
    <path d="M72 88 L96 52 L120 88" fill="none" stroke="#6ee7b7" stroke-width="4" stroke-linecap="round" stroke-linejoin="round"/>
    <rect x="16" y="152" width="100" height="8" rx="4" fill="#cbd5e1"/>
    <rect x="16" y="172" width="72" height="8" rx="4" fill="#e2e8f0"/>
  </g>

  <text x="48" y="268" font-family="system-ui, -apple-system, sans-serif" font-size="22" font-weight="600" fill="#f8fafc">
    SVG Preview Demo
  </text>
  <text x="48" y="296" font-family="system-ui, -apple-system, sans-serif" font-size="14" fill="#94a3b8">
    480 x 320 - fit to preview panel
  </text>
</svg>
